<?xml version="1.0" encoding="utf-8"?>
<!-- Generator: Adobe Illustrator 26.0.2, SVG Export Plug-In . SVG Version: 6.00 Build 0)  -->
<svg version="1.1" id="Layer_1" xmlns="http://www.w3.org/2000/svg" xmlns:xlink="http://www.w3.org/1999/xlink" x="0px" y="0px"
	 viewBox="0 0 800 310.6" style="enable-background:new 0 0 800 310.6;" xml:space="preserve">
<style type="text/css">
	.st0{fill:#FFFFFF;}
	.st1{fill:#022F87;}
	.st2{fill:#EF3340;}
</style>
<g>
	<g>
		<path class="st0" d="M232.76,149.59c-0.64-0.37-1.33-0.75-2.07-1.17c-9.47-5.28-27.11-15.1-33.47-31l-1.1-2.75l-5.66,0.01
			c5.7-7.41,11.47-18.85,11.24-31.79c-0.22-13.15-4.36-21.71-8.02-29.26c-3.27-6.74-6.09-12.57-5.99-20.94
			c0.07-5.3,0.7-12.54,5.03-21.57L198.04,0L186.9,5.27c-1.06,0.5-2.07,0.99-3.07,1.48c-7.71,3.73-13.28,6.43-24.51,6.46h-0.17
			c-7.11,0-11.77-1.32-17.18-2.86c-6.11-1.73-13.03-3.71-24.33-3.89h-0.06h-0.07c-11.28,0.18-18.2,2.16-24.31,3.89
			c-5.41,1.54-10.07,2.86-17.17,2.86h-0.19c-11.22-0.03-16.79-2.72-24.5-6.45c-1-0.48-2.03-0.98-3.1-1.48L37.1,0.01l5.33,11.11
			c4.33,9.04,4.96,16.27,5.03,21.56c0.1,8.38-2.72,14.21-5.99,20.95c-3.66,7.55-7.8,16.11-8.02,29.26
			c-0.22,12.94,5.55,24.39,11.24,31.79l-5.64-0.01l-1.11,2.75c-6.36,15.89-23.97,25.72-33.44,30.99c-0.75,0.42-1.45,0.81-2.09,1.18
			L0,150.93l0.17,2.73c0.79,12.38,2.93,24.49,6.35,36.03c7.46,25.22,20.57,47.61,40.06,68.46c19.39,20.74,44.56,39.51,69.06,51.51
			l1.93,0.94l1.93-0.94c24.48-11.99,49.65-30.76,69.05-51.51c19.51-20.84,32.62-43.24,40.08-68.46c3.41-11.55,5.55-23.66,6.35-36.02
			l0.17-2.74L232.76,149.59z M224.43,188.45c-7.69,26.02-21.45,47.88-39.08,66.72c-19.48,20.84-44,38.92-67.78,50.57
			C93.8,294.09,69.26,276,49.78,255.17c-17.61-18.84-31.37-40.69-39.07-66.72c-3.25-10.98-5.38-22.66-6.17-35.06
			c9.18-5.2,29.99-15.73,37.44-34.35l13.28,0.02c-4.68-2.6-17.76-17.61-17.46-36.11c0.41-23.59,14.26-30.87,14.02-50.33
			c-0.08-6.49-1.01-14.13-5.46-23.4c9.44,4.46,15.7,8.32,29.46,8.35c16.28,0.06,21.17-6.41,41.74-6.75
			c20.58,0.34,25.46,6.81,41.76,6.75c13.75-0.03,20.02-3.89,29.44-8.35c-4.44,9.27-5.37,16.91-5.45,23.4
			c-0.24,19.47,13.63,26.74,14.01,50.33c0.32,18.5-12.76,33.51-17.45,36.11l13.28-0.02c7.46,18.62,28.27,29.15,37.46,34.35
			C229.8,165.79,227.68,177.47,224.43,188.45z"/>
		<path class="st0" d="M189.56,124.51l-10.81-0.03l-4.26-3.71l0.05-4.68c4.74-2.61,17.31-16.42,17.03-33.99
			c-0.32-19.06-14.07-28.61-14.02-49.11c0.02-2.36,0.11-8.2,1.33-13.05c-6.58,2.6-14.36,3.43-20.39,3.42
			c-14.53-0.01-26.56-6.72-40.94-6.81c-14.4,0.09-26.4,6.79-40.94,6.8c-6.03,0.01-13.79-0.82-20.38-3.41
			c1.23,4.85,1.31,10.68,1.31,13.03c0.07,20.51-13.69,30.05-14,49.12c-0.27,17.56,12.3,31.38,17.04,33.98l0.01,0.96l0.02,3.73
			l-3.06,2.67l-1.19,1.04l-10.81,0.03c-7.97,17.82-26.23,27.25-34.75,32.18c1.71,26.48,10.75,50.07,24.29,70.65
			c20.45,31.07,51.16,55.25,82.46,72.06c31.31-16.8,62.02-40.98,82.47-72.05c13.54-20.57,22.58-44.18,24.29-70.65
			C215.8,151.76,197.52,142.31,189.56,124.51z M117.57,21.7c15.3-0.72,33.17,6.22,42.71,12.9c-11.98,1.55-25.42,5.68-42.71,17.9
			c-17.29-12.22-30.73-16.35-42.71-17.9C84.41,27.92,102.27,20.97,117.57,21.7z M53.48,81.21c-0.02-15.49,12.65-19.45,12.37-32.79
			c-0.04-2.19-0.43-4.62-1.31-7.42c24.66-0.62,41.23,11.63,53.02,24.38c11.81-12.75,28.37-25,53.03-24.38
			c-0.88,2.8-1.27,5.23-1.31,7.42c-0.29,13.34,12.39,17.3,12.37,32.79c0,17.59-12.45,24.94-25.99,24.88
			c-8.12-0.04-16.43-2.87-23.05-7.62c-0.66,13.07,8.49,25.72,13.22,28.68l-28.26,6.41l-28.26-6.41c4.72-2.95,13.88-15.6,13.23-28.68
			c-6.63,4.75-14.94,7.59-23.05,7.62C65.94,106.15,53.48,98.79,53.48,81.21z M53.76,128h4.99l3.59-3.37l55.23,12.58l55.23-12.59
			l3.58,3.38h5l2.03,3.04l-65.84,15.01l-65.83-14.98L53.76,128z M117.57,290.06c-28.33-14.73-57.35-38.54-76.59-68.47
			c-11.74-18.26-19.84-38.78-21.95-60.92c5.12-2.81,19.64-10.15,29.78-26.13l68.76,15.63l68.76-15.64
			c10.14,15.96,24.67,23.32,29.8,26.13C210.57,219.11,163.17,266.35,117.57,290.06z"/>
		<path class="st0" d="M124.4,177.8h9.33l0.01,50.18c0,7.16-4.3,11.34-11.74,11.28l-8.87,0.01c-7.45,0.08-11.74-4.12-11.74-11.29
			l0.03-50.17h9.32l-0.01-19.9l-47.9,0.03v19.87h10.23l-0.02,59.17l25.44,24.91l38.16-0.02l25.45-24.89l-0.03-59.17h10.24v-19.89
			l-47.91-0.02V177.8z"/>
		<path class="st0" d="M85.41,93.53c9.09,0,16.53-7.22,16.53-16.07c0-8.86-7.44-16.09-16.53-16.09c-9.1,0-16.52,7.23-16.52,16.09
			C68.9,86.3,76.32,93.53,85.41,93.53z"/>
		<path class="st0" d="M149.73,93.53c9.09,0,16.51-7.22,16.51-16.07c0-8.86-7.42-16.09-16.51-16.09c-9.09,0-16.52,7.23-16.52,16.09
			C133.21,86.3,140.64,93.53,149.73,93.53z"/>
	</g>
	<path class="st1" d="M193.15,119.04l-13.28,0.02c4.7-2.6,17.78-17.61,17.45-36.11c-0.38-23.59-14.25-30.87-14.01-50.33
		c0.08-6.49,1.02-14.13,5.45-23.4c-9.42,4.46-15.69,8.32-29.44,8.35c-16.3,0.06-21.17-6.41-41.76-6.75
		c-20.57,0.34-25.46,6.81-41.74,6.75c-13.76-0.03-20.02-3.89-29.46-8.35c4.45,9.27,5.38,16.91,5.46,23.4
		c0.24,19.47-13.61,26.74-14.02,50.33c-0.3,18.5,12.78,33.51,17.46,36.11l-13.28-0.02c-7.45,18.62-28.27,29.15-37.44,34.35
		c0.79,12.4,2.92,24.08,6.17,35.06c7.7,26.02,21.45,47.88,39.07,66.72c19.48,20.84,44.02,38.92,67.79,50.57
		c23.79-11.65,48.3-29.73,67.78-50.57c17.63-18.84,31.39-40.69,39.08-66.72c3.25-10.98,5.37-22.66,6.18-35.06
		C221.42,148.19,200.61,137.66,193.15,119.04z M35.11,227.32c-13.54-20.57-22.58-44.16-24.29-70.65
		c8.52-4.93,26.78-14.36,34.75-32.18l10.81-0.03l1.19-1.04l3.06-2.67l-0.02-3.73l-0.01-0.96c-4.75-2.6-17.32-16.42-17.04-33.98
		c0.32-19.07,14.08-28.61,14-49.12c0-2.36-0.08-8.19-1.31-13.03c6.58,2.59,14.35,3.43,20.38,3.41c14.54-0.01,26.54-6.71,40.94-6.8
		c14.39,0.09,26.41,6.8,40.94,6.81c6.03,0.01,13.8-0.82,20.39-3.42c-1.23,4.85-1.32,10.68-1.33,13.05
		c-0.05,20.49,13.71,30.05,14.02,49.11c0.28,17.57-12.3,31.38-17.03,33.99l-0.05,4.68l4.26,3.71l10.81,0.03
		c7.96,17.8,26.24,27.25,34.76,32.17c-1.71,26.48-10.75,50.08-24.29,70.65c-20.45,31.07-51.16,55.25-82.47,72.05
		C86.27,282.57,55.56,258.39,35.11,227.32z"/>
	<path class="st1" d="M186.32,134.53l-68.76,15.64l-68.76-15.63c-10.14,15.97-24.67,23.32-29.78,26.13
		c2.11,22.13,10.21,42.66,21.95,60.92c19.24,29.93,48.26,53.74,76.59,68.47c45.6-23.72,93-70.96,98.56-129.4
		C211,157.86,196.47,150.5,186.32,134.53z M172.31,177.8h-10.24l0.03,59.17l-25.45,24.89l-38.16,0.02l-25.44-24.91l0.02-59.17H62.83
		v-19.87l47.9-0.03l0.01,19.9h-9.32l-0.03,50.17c0,7.17,4.29,11.37,11.74,11.29l8.87-0.01c7.44,0.06,11.74-4.12,11.74-11.28
		l-0.01-50.18h-9.33V157.9l47.91,0.02V177.8z"/>
	<path class="st0" d="M372.62,100.19c9.19,0,16.61-5.2,16.61-14.39v-8.31h-11.08v8.31c0,3.1-2.44,5.53-5.54,5.53
		c-3.1,0-5.54-2.43-5.54-5.53V48.02c0-3.1,2.44-5.54,5.54-5.54c3.1,0,5.54,2.44,5.54,5.54v8.3h11.08v-8.3
		c0-9.19-7.42-14.4-16.61-14.4c-9.2,0-16.61,5.21-16.61,14.4v37.77C356,94.99,363.42,100.19,372.62,100.19z"/>
	<polygon class="st0" points="429.43,91.44 411.93,91.44 411.93,34.51 400.85,34.51 400.85,99.19 429.43,99.19 	"/>
	<path class="st0" d="M469.85,83.58V34.51h-11.08v51.28c0,3.1-2.44,5.53-5.54,5.53c-3.1,0-5.54-2.43-5.54-5.53V34.51h-11.08v49.07
		c0,9.19,6.32,16.61,16.61,16.61C463.54,100.19,469.85,92.77,469.85,83.58z"/>
	<path class="st0" d="M490.23,99.19l12.96-0.11c9.75-0.11,15.39-7.32,15.39-17.83c0-7.86-3.99-12.52-10.08-16.06
		c5.42-2.87,8.97-7.31,8.97-15.06c0-9.75-7.09-15.51-16.61-15.61l-11.74-0.11v0.11h-4.87v64.57h5.98V99.19z M495.32,42.26h4.65
		c5.21,0,6.42,3.87,6.42,9.63c0,4.1-2.44,9.2-6.09,9.2h-4.99V42.26z M495.32,69.85l4.1,0.11c6.2,0.11,8.75,4.98,8.75,10.41
		c0,5.76-2.54,10.85-7.75,10.96h-5.09V69.85z"/>
	<path class="st0" d="M381.48,174.19c0,3.1-2.44,5.53-5.54,5.53c-3.1,0-5.54-2.43-5.54-5.53V122.9h-11.07v49.07
		c0,9.19,6.31,16.61,16.61,16.61c10.3,0,16.61-7.42,16.61-16.61V122.9h-11.08V174.19z"/>
	<polygon class="st0" points="430.54,162.22 415.81,122.9 406.94,122.9 406.94,187.48 417.47,187.48 417.47,147.16 432.2,187.48 
		441.06,187.48 441.06,122.9 430.54,122.9 	"/>
	<polygon class="st0" points="466.75,122.9 455.67,122.9 455.45,187.58 466.53,187.58 	"/>
	<polygon class="st0" points="503.41,122.9 495.21,169.75 487.12,122.9 476.16,122.9 489.67,187.58 500.75,187.58 514.26,122.9 	"/>
	<polygon class="st0" points="522.56,187.58 552.24,187.58 552.24,179.83 533.64,179.83 533.64,159.12 551.14,159.12 551.14,151.36 
		533.64,151.36 533.64,130.65 552.24,130.65 552.24,122.9 522.56,122.9 	"/>
	<path class="st0" d="M600.54,187.48l-8.42-29.8c4.32-3.66,7.2-9.3,7.2-15.84c0-11.63-5.42-18.94-20.27-18.94h-14.07v64.57h11.08
		v-25.92h7.65l5.76,25.92H600.54z M579.05,154.25h-2.99v-23.59h2.22c7.31,0.11,10.63,3.66,10.63,11.19
		C588.9,146.6,586.91,154.14,579.05,154.25z"/>
	<path class="st0" d="M625.45,188.58c10.3,0,17.17-7.42,17.17-16.61c0-6.43-4.99-12.3-12.52-19.61
		c-4.1-3.99-10.74-10.08-10.74-15.18c0-4.2,2.1-6.31,5.2-6.31c3.44,0,5.87,2.44,5.87,6.65v5.1h11.08v-3.99
		c0-9.19-6.42-16.61-16.61-16.61c-9.19,0-16.61,6.31-16.61,14.73c0,5.21,2.22,9.86,8.97,17.17c5.32,5.76,14.29,14.62,14.29,19.16
		c0,4.21-2.66,6.65-5.76,6.65c-3.66,0-6.42-2.43-6.42-6.65v-5.09h-11.08v3.99C608.28,181.16,615.15,188.58,625.45,188.58z"/>
	<polygon class="st0" points="653.69,187.58 664.77,187.58 664.99,122.9 653.91,122.9 	"/>
	<path class="st0" d="M692.79,122.9h-13.4v64.57h4.87v0.11h8.53c11.08,0,19.82-4.65,19.82-17.72v-29.24
		C712.61,127.55,703.87,122.9,692.79,122.9z M701.54,170.08c0,7.86-1.55,9.63-8.64,9.75h-2.44v-49.18h2.44
		c7.09,0.11,8.64,1.89,8.64,12.85V170.08z"/>
	<path class="st0" d="M733.87,122.9l-12.95,64.68h10.96l2.11-12.85h12.07l2.11,12.85h10.85l-12.96-64.68H733.87z M735.54,164.77
		l4.43-27.03l4.43,27.03H735.54z"/>
	<path class="st0" d="M780.17,122.9h-13.4v64.57h4.87v0.11h8.53c11.08,0,19.83-4.65,19.83-17.72v-29.24
		C800,127.55,791.25,122.9,780.17,122.9z M788.92,170.08c0,7.86-1.55,9.63-8.64,9.75h-2.44v-49.18h2.44
		c7.09,0.11,8.64,1.89,8.64,12.85V170.08z"/>
	<path class="st0" d="M372.72,211.28h-13.4v64.58h4.87v0.11h8.53c11.07,0,19.83-4.65,19.83-17.72V229
		C392.55,215.93,383.8,211.28,372.72,211.28z M381.48,258.46c0,7.86-1.55,9.63-8.64,9.75h-2.44v-49.18h2.44
		c7.09,0.11,8.64,1.89,8.64,12.85V258.46z"/>
	<polygon class="st0" points="405.28,275.97 434.96,275.97 434.96,268.21 416.36,268.21 416.36,247.5 433.86,247.5 433.86,239.74 
		416.36,239.74 416.36,219.04 434.96,219.04 434.96,211.28 405.28,211.28 	"/>
	<path class="st0" d="M483.14,210.4c-9.19,0-16.61,5.21-16.61,14.4v37.77c0,9.19,7.42,14.39,16.61,14.39
		c9.19,0,16.61-5.2,16.61-14.39v-8.31h-11.08v8.31c0,3.1-2.44,5.53-5.54,5.53s-5.54-2.43-5.54-5.53v-37.77
		c0-3.1,2.44-5.54,5.54-5.54s5.54,2.44,5.54,5.54v8.3h11.08v-8.3C499.76,215.6,492.33,210.4,483.14,210.4z"/>
	<polygon class="st0" points="534.64,238.64 522.46,238.64 522.46,211.28 511.38,211.28 511.38,275.97 522.46,275.97 522.46,248.6 
		534.64,248.6 534.64,275.97 545.72,275.97 545.72,211.28 534.64,211.28 	"/>
	<polygon class="st0" points="560.11,275.97 571.18,275.97 571.4,211.28 560.33,211.28 	"/>
	<polygon class="st0" points="596.88,211.28 585.8,211.28 585.8,275.97 614.38,275.97 614.38,268.21 596.88,268.21 	"/>
	<polygon class="st0" points="621.58,275.97 651.26,275.97 651.26,268.21 632.65,268.21 632.65,247.5 650.15,247.5 650.15,239.74 
		632.65,239.74 632.65,219.04 651.26,219.04 651.26,211.28 621.58,211.28 	"/>
	<path class="st2" d="M160.28,34.6c-9.55-6.67-27.41-13.62-42.71-12.9c-15.3-0.72-33.15,6.22-42.71,12.9
		c11.98,1.55,25.42,5.68,42.71,17.9C134.86,40.27,148.3,36.15,160.28,34.6z"/>
	<path class="st2" d="M170.6,41c-24.66-0.62-41.22,11.63-53.03,24.38c-11.79-12.75-28.36-25-53.02-24.38
		c0.88,2.8,1.27,5.23,1.31,7.42c0.28,13.34-12.39,17.3-12.37,32.79c0,17.59,12.46,24.94,26,24.88c8.11-0.04,16.42-2.87,23.05-7.62
		c0.65,13.07-8.51,25.72-13.23,28.68l28.26,6.41l28.26-6.41c-4.73-2.95-13.88-15.6-13.22-28.68c6.62,4.75,14.93,7.59,23.05,7.62
		c13.54,0.06,25.99-7.29,25.99-24.88c0.02-15.49-12.66-19.45-12.37-32.79C169.33,46.23,169.72,43.8,170.6,41z M85.41,93.53
		c-9.1,0-16.52-7.22-16.52-16.07c0-8.86,7.42-16.09,16.52-16.09c9.09,0,16.53,7.23,16.53,16.09C101.94,86.3,94.51,93.53,85.41,93.53
		z M149.73,93.53c-9.09,0-16.52-7.22-16.52-16.07c0-8.86,7.43-16.09,16.52-16.09c9.09,0,16.51,7.23,16.51,16.09
		C166.24,86.3,158.82,93.53,149.73,93.53z"/>
	<polygon class="st2" points="181.37,127.99 176.38,127.99 172.8,124.62 117.57,137.21 62.34,124.63 58.75,128 53.76,128 
		51.74,131.06 117.57,146.04 183.41,131.03 	"/>
</g>
</svg>
